<svg width="51" height="61" viewBox="0 0 51 61" fill="none" xmlns="http://www.w3.org/2000/svg">
<path d="M51 44.7133C51 44.7287 51 44.7493 51 44.7647C50.9643 44.8418 50.9235 44.9137 50.898 44.9959C49.725 48.4651 48.0369 51.6618 45.849 54.5913C44.7321 56.092 43.5999 57.5824 42.1821 58.8159C40.1472 60.5839 37.8522 61.3342 35.1696 60.7175C33.9405 60.4348 32.7675 59.9877 31.5945 59.5405C30.1563 58.9958 28.6773 58.6154 27.1371 58.5589C25.2297 58.4921 23.409 58.9135 21.6393 59.5868C20.3796 60.0648 19.1199 60.5582 17.7888 60.8305C16.5036 61.0927 15.2439 61.0772 14.0097 60.5736C12.7398 60.0596 11.679 59.2425 10.7049 58.2968C8.8026 56.4517 7.2624 54.3035 5.814 52.0935C3.9576 49.2514 2.6265 46.1575 1.6065 42.9248C0.8058 40.3962 0.2754 37.8059 0.0918 35.1436C0.0663 34.7685 0.0306 34.3984 0 34.0233C0 33.2678 0 32.5174 0 31.7619C0.0153 31.6694 0.0306 31.5769 0.0408 31.4844C0.0969 30.8985 0.1326 30.3074 0.1989 29.7215C0.51 27.1261 1.2495 24.6695 2.5959 22.4235C5.4672 17.6233 9.6594 14.9611 15.2439 14.6219C16.8351 14.5242 18.36 14.9405 19.8594 15.4339C21.4761 15.9684 23.0877 16.5389 24.7044 17.0837C25.4133 17.3201 26.1273 17.3766 26.8515 17.1248C28.2489 16.6417 29.6514 16.1894 31.0437 15.696C32.7624 15.0793 34.5066 14.5962 36.3375 14.4728C37.9746 14.3649 39.576 14.6167 41.1519 15.0073C43.9161 15.6857 46.3233 17.0066 48.246 19.1549C48.6387 19.5969 49.0008 20.0697 49.3527 20.5014C48.6234 21.0462 47.9094 21.5396 47.2362 22.0895C45.3492 23.6416 43.9671 25.5535 43.2174 27.9022C42.585 29.8757 42.4779 31.8955 42.7227 33.941C42.9318 35.6987 43.4418 37.3536 44.3496 38.8697C45.9408 41.5422 48.1695 43.4798 51 44.7133Z" fill="white"/>
<path d="M38.1983 0C38.2034 0.693824 38.2391 1.38765 38.2034 2.07633C38.1014 3.94709 37.5404 5.68422 36.6275 7.30314C35.3627 9.53366 33.6848 11.3839 31.5428 12.7869C29.8292 13.9125 27.9473 14.4984 25.8869 14.4418C25.6523 14.4367 25.5554 14.3801 25.535 14.118C25.3769 12.2319 25.7339 10.4382 26.4632 8.71135C27.4373 6.3986 28.8806 4.4302 30.8696 2.90378C32.7107 1.49044 34.7813 0.54992 37.0661 0.118207C37.3415 0.0668127 37.6169 0.0359761 37.8923 0C37.9943 0 38.0963 0 38.1983 0Z" fill="white"/>
</svg>
